<?xml version="1.0" standalone="no"?>
<!DOCTYPE svg PUBLIC "-//W3C//DTD SVG 20010904//EN"
 "http://www.w3.org/TR/2001/REC-SVG-20010904/DTD/svg10.dtd">
<svg version="1.0" xmlns="http://www.w3.org/2000/svg"
 width="16.000000pt" height="16.000000pt" viewBox="0 0 16.000000 16.000000"
 preserveAspectRatio="xMidYMid meet">
<metadata>
Created by potrace 1.11, written by Peter Selinger 2001-2013
</metadata>
<g transform="translate(0.000000,16.000000) scale(0.007339,-0.007339)"
fill="#000000" stroke="none">
<path d="M656 1642 c-5 -8 -378 -869 -454 -1050 l-31 -72 137 0 137 0 46 118
46 117 220 3 220 2 49 -120 49 -120 138 0 c84 0 137 4 137 10 0 5 -15 43 -33
82 -18 40 -127 290 -243 555 l-209 483 -102 0 c-56 0 -104 -4 -107 -8z m164
-487 c34 -88 65 -166 67 -172 4 -10 -26 -13 -132 -13 -126 0 -137 1 -131 18
40 105 130 331 132 329 1 -1 30 -74 64 -162z"/>
<path d="M1595 1608 c-21 -24 -90 -99 -154 -167 -64 -68 -129 -138 -146 -156
-16 -18 -45 -48 -63 -67 l-33 -35 58 -132 c58 -130 61 -134 228 -331 l170
-199 173 -1 c94 0 172 2 172 4 0 3 -8 13 -122 137 -42 46 -85 93 -95 105 -45
52 -173 194 -225 249 -31 33 -65 72 -76 86 l-21 25 66 70 c85 90 266 279 362
377 l76 77 -166 0 -166 0 -38 -42z"/>
</g>
</svg>
