<?xml version="1.0" encoding="UTF-8"?>
<svg width="47px" height="32px" viewBox="0 0 47 32" version="1.1" xmlns="http://www.w3.org/2000/svg" xmlns:xlink="http://www.w3.org/1999/xlink">
    <title>Icon</title>
    <g id="Page-1" stroke="none" stroke-width="1" fill="none" fill-rule="evenodd">
        <g id="Home" transform="translate(-49.000000, -12.000000)">
            <g id="Icon" transform="translate(49.000000, 12.000000)">
                <path d="M15.867403,5.60686404 C16.0585286,5.73017088 16.2211678,5.89281009 16.3444746,6.08393569 L29.4081271,26.332597 C29.8871805,27.0751298 29.6735883,28.0654212 28.9310555,28.5444746 C28.6725052,28.7112812 28.3713417,28.8 28.0636525,28.8 L1.93634754,28.8 C1.05269194,28.8 0.336347535,28.0836556 0.336347535,27.2 C0.336347535,26.8923108 0.425066299,26.5911472 0.591872898,26.332597 L13.6555254,6.08393569 C14.1345788,5.34140285 15.1248702,5.1278106 15.867403,5.60686404 Z M15,14.4 C12.3490332,14.4 10.2,16.5490332 10.2,19.2 C10.2,21.8509668 12.3490332,24 15,24 C17.6509668,24 19.8,21.8509668 19.8,19.2 C19.8,16.5490332 17.6509668,14.4 15,14.4 Z" id="Combined-Shape" fill="#737373"></path>
                <path d="M39.5100347,9.29412537 L51.5747429,21.0474863 C52.2076955,21.6641046 52.2209371,22.6770821 51.6043187,23.3100347 C51.3031478,23.6191837 50.8898548,23.7935484 50.4582566,23.7935484 L26.3288402,23.7935484 C25.4451846,23.7935484 24.7288402,23.077204 24.7288402,22.1935484 C24.7288402,21.7619502 24.9032049,21.3486572 25.2123539,21.0474863 L37.2770621,9.29412537 C37.8983457,8.68887483 38.888751,8.68887483 39.5100347,9.29412537 Z" id="Triangle-Copy" fill="#D8D8D8" transform="translate(38.393548, 16.000000) scale(-1, 1) rotate(90.000000) translate(-38.393548, -16.000000) "></path>
            </g>
        </g>
    </g>
</svg>